#!OML:ASF E:/inclinewalkrobotboard/Project1/Captureday1/Session1/subject1.ASF
:FULLY-SPECIFIED
:DEGREES
113
root 0 0 0 45.02010339916562 -47.13413127570429 -18.511108875920023
lowerback -6.50461434049999 3.603393455919451 -0.48201797616781444
upperback -13.443622600832462 4.311368577527004 -0.07881943687688286
thorax -11.036898317671481 2.112114162740757 0.6812219760910943
lowerneck -11.434473507337657 6.758727847455719 4.436753889565703
upperneck 18.190376934944496 7.227690447261663 7.279204454336353
head 7.640126088160631 4.225191300990259 2.161107768968018
rclavicle 9.099868378919544E-16 -1.8262798645511857E-15
rhumerus 7.986697408446934 -22.476152859498 -48.48294780905364
rradius 27.908688089549507
rwrist 21.320273083282643
rhand 0.8587779469104522 7.342947446579895
rfingers 7.125020000000029
rthumb 26.476199929931393 -19.705693142540035
lclavicle 1.4221788315783827E-15 -9.292097834474147E-16
lhumerus -10.495355481281056 3.9390411192174795 51.2485407615017
lradius 35.585129982986444
lwrist -7.877263255716292
lhand -1.7589327221788427 23.34025876816216
lfingers 7.125019999999976
lthumb 23.520922467096483 50.51473233111132
rfemur 59.00010193940099 -82.00501477947043 -56.19089745694012
rtibia 40.21337457430074
rfoot -18.42897952025104 -17.983849553670744
rtoes 21.641928953537864
lfemur -44.798601976464106 8.242510896088607 -27.13388427533447
ltibia 44.06869085838494
lfoot -22.791439669824932 14.93753717516591
ltoes 10.903166018526875
114
root 0 0 0 45.01174310120317 -47.12561716760936 -18.507484498833605
lowerback -6.502413056333853 3.6026936815963015 -0.48227836384452705
upperback -13.441452148708546 4.310445089960728 -0.07845167162621935
thorax -11.035725248224537 2.1116979046834548 0.6815593612346946
lowerneck -11.43500005249377 6.756931124211062 4.435576334908494
upperneck 18.19135034485733 7.225520802745098 7.27793655647033
head 7.64058516509397 4.224023742682077 2.160709140491294
rclavicle 9.114466599165597E-16 -1.8271194409692053E-15
rhumerus 7.967362567961159 -22.47669016548196 -48.481537820692424
rradius 27.91343301689669
rwrist 21.308548139698853
rhand 0.8518261199819666 7.350120466343898
rfingers 7.125020000000029
rthumb 26.4694774384813 -19.6997536944297
lclavicle 1.4251721807522286E-15 -9.28029459347427E-16
lhumerus -10.502931322019327 3.932285940093889 51.26622165248576
lradius 35.58904267035191
lwrist -7.8666767529927295
lhand -1.7615563049903713 23.338535009781204
lfingers 7.125019999999976
lthumb 23.51757726098635 50.513152437677796
rfemur 58.96446366020817 -81.96561379019833 -56.151934725542745
rtibia 40.21344660837634
rfoot -18.427313754564548 -17.97909654429248
rtoes 21.637608942330743
lfemur -44.782232909678235 8.236660425813728 -27.131063196248746
ltibia 44.06402417527795
lfoot -22.785935598102526 14.929537140614649
ltoes 10.896007506665416
115
root 0 0 0 45.00433603748458 -47.12275884771809 -18.504733478467656
lowerback -6.499109415115222 3.602354979895336 -0.48261022464322123
upperback -13.439745447602105 4.309805597585044 -0.07870353129326402
thorax -11.035622331828286 2.11141705461295 0.68136296807297
lowerneck -11.435822104353516 6.756663844683905 4.435251354253444
upperneck 18.19000885219679 7.225215498788428 7.277517286763439
head 7.640206082151801 4.22385211806234 2.1606103033437334
rclavicle 9.116699747388493E-16 -1.827334735800475E-15
rhumerus 7.950958827809677 -22.47561251004175 -48.487481114991766
rradius 27.91610590126864
rwrist 21.29950568071461
rhand 0.8436833427865018 7.357599915460227
rfingers 7.125020000000029
rthumb 26.46166017645767 -19.69353935270051
lclavicle 1.428028177336282E-15 -9.261612754878028E-16
lhumerus -10.513303358744192 3.9241003269338472 51.28837052120326
lradius 35.592666627401215
lwrist -7.853410747967988
lhand -1.765902857221434 23.33679467532904
lfingers 7.125019999999976
lthumb 23.512355860912756 50.51175851335688
rfemur 58.90418147696609 -81.89938664937338 -56.087143716973
rtibia 40.21391272624924
rfoot -18.425186041996046 -17.97127404327731
rtoes 21.632188135606448
lfemur -44.76197973343538 8.229494250048868 -27.128186254563605
ltibia 44.05871880767774
lfoot -22.778196961609353 14.919638116825784
ltoes 10.886691129951526
116
root 0 0 0 45.032501141471414 -47.14115090546552 -18.515076594118366
lowerback -6.509924421387934 3.6034092514435803 -0.4823747312904185
upperback -13.448069936032791 4.311596472029212 -0.07828870770225604
thorax -11.038783538739292 2.1123369156980507 0.6822830330448046
lowerneck -11.431854033079865 6.760260886997341 4.437392708878568
upperneck 18.190283122798288 7.229514415697606 7.281242021655739
head 7.639767763577272 4.226170676203587 2.1616843566891837
rclavicle 9.084401839392678E-16 -1.8259527601425826E-15
rhumerus 8.010731133111252 -22.475629996517792 -48.48079426291102
rradius 27.9039410101125
rwrist 21.331989982117847
rhand 0.8691435341510463 7.333311737027681
rfingers 7.125020000000029
rthumb 26.485745706586417 -19.713867044496162
lclavicle 1.4148494899822814E-15 -9.304308402374125E-16
lhumerus -10.483970398266623 3.951740221547531 51.21584884540006
lradius 35.576668176756414
lwrist -7.896705979097423
lhand -1.7565017878161218 23.344026017564467
lfingers 7.125019999999976
lthumb 23.524258076799327 50.518545503972256
rfemur 59.06860334959123 -82.08642464341574 -56.27114674432298
rtibia 40.213690879994935
rfoot -18.436670673012486 -17.994003705458958
rtoes 21.655198226546542
lfemur -44.8275337567108 8.253488564512791 -27.13725810998512
ltibia 44.0766305990748
lfoot -22.80567244741645 14.95314384616509
ltoes 10.918799233916008
117
root 0 0 0 45.02027495049059 -47.132378333352065 -18.511012636891845
lowerback -6.505241713008305 3.60334165450202 -0.4819221927767388
upperback -13.443459154452384 4.311386150785001 -0.07863395252511651
thorax -11.036405194340821 2.112114161514638 0.681351480296098
lowerneck -11.434420029097634 6.75818085633655 4.436505972060017
upperneck 18.191432518998887 7.227015224648662 7.278842736266627
head 7.64052015796063 4.224835815070919 2.1609819521766056
rclavicle 9.097276052453294E-16 -1.82611044230707E-15
rhumerus 7.991656276381969 -22.476169698764558 -48.48289811809472
rradius 27.907846214539795
rwrist 21.32303520965558
rhand 0.860441878419671 7.341268413727407
rfingers 7.125020000000029
rthumb 26.47777598195249 -19.707102566123854
lclavicle 1.4208475456921026E-15 -9.297196470375478E-16
lhumerus -10.492789908045399 3.942057324525181 51.24146392237725
lradius 35.58314940241017
lwrist -7.8819265737963615
lhand -1.7585072669969577 23.341021359871252
lfingers 7.125019999999976
lthumb 23.521664210108263 50.51555035201484
rfemur 59.01097651834642 -82.01693275418316 -56.20252816545907
rtibia 40.21330705629384
rfoot -18.42933550953824 -17.985268127935047
rtoes 21.64292924950831
lfemur -44.801769950960626 8.243610231250674 -27.13438993188646
ltibia 44.069538986754864
lfoot -22.792579248964245 14.939075188370126
ltoes 10.904553463160802
